<?xml version="1.0" encoding="UTF-8" standalone="no"?>
<!-- Created with Inkscape (http://www.inkscape.org/) -->

<svg
   xmlns:dc="http://purl.org/dc/elements/1.1/"
   xmlns:cc="http://creativecommons.org/ns#"
   xmlns:rdf="http://www.w3.org/1999/02/22-rdf-syntax-ns#"
   xmlns:svg="http://www.w3.org/2000/svg"
   xmlns="http://www.w3.org/2000/svg"
   xmlns:sodipodi="http://sodipodi.sourceforge.net/DTD/sodipodi-0.dtd"
   xmlns:inkscape="http://www.inkscape.org/namespaces/inkscape"
   width="18.666901mm"
   height="18.47333mm"
   viewBox="0 0 18.666901 18.47333"
   version="1.1"
   id="svg9570"
   inkscape:version="0.92.4 (5da689c313, 2019-01-14)"
   sodipodi:docname="logo.svg">
  <defs
     id="defs9564" />
  <sodipodi:namedview
     id="base"
     pagecolor="#ffffff"
     bordercolor="#666666"
     borderopacity="1.0"
     inkscape:pageopacity="0.0"
     inkscape:pageshadow="2"
     inkscape:zoom="0.35"
     inkscape:cx="-550.43826"
     inkscape:cy="214.91023"
     inkscape:document-units="mm"
     inkscape:current-layer="layer1"
     showgrid="false"
     inkscape:window-width="1920"
     inkscape:window-height="1017"
     inkscape:window-x="-8"
     inkscape:window-y="108"
     inkscape:window-maximized="1"
     fit-margin-top="0"
     fit-margin-left="0"
     fit-margin-right="0"
     fit-margin-bottom="0" />
  <metadata
     id="metadata9567">
    <rdf:RDF>
      <cc:Work
         rdf:about="">
        <dc:format>image/svg+xml</dc:format>
        <dc:type
           rdf:resource="http://purl.org/dc/dcmitype/StillImage" />
        <dc:title></dc:title>
      </cc:Work>
    </rdf:RDF>
  </metadata>
  <g
     inkscape:label="Layer 1"
     inkscape:groupmode="layer"
     id="layer1"
     transform="translate(-98.01179,-187.22167)">
    <g
       id="g14069"
       transform="translate(-240.60858,-50.360472)">
      <path
         d="m 347.9538,237.58214 c 5.15478,0 9.33347,4.17873 9.33347,9.33341 0,4.16902 -2.73357,7.6992 -6.50589,8.89702 0.008,-0.44443 -0.0256,-0.91782 -0.1052,-1.40462 -0.053,-0.3236 -0.12358,-0.635 -0.2086,-0.93049 2.63839,-1.01131 4.51182,-3.5676 4.51182,-6.56191 0,-3.87999 -3.14551,-7.0255 -7.0256,-7.0255 -3.26673,0 -6.0124,2.2297 -6.79902,5.25011 l -0.0112,-0.0134 c -0.22963,0.80899 -0.35243,1.66282 -0.35243,2.5454 0,3.69062 2.14874,6.87892 5.26331,8.38331 -4.24389,-0.8774 -7.43409,-4.636 -7.43409,-9.13991 0,-5.15468 4.17869,-9.33341 9.33341,-9.33341"
         style="fill:#a6ce38;fill-opacity:1;fill-rule:evenodd;stroke:none;stroke-width:0.35277778"
         id="path4763"
         inkscape:connector-curvature="0" />
      <path
         d="m 356.8517,246.45154 c -0.24151,-4.70538 -4.13241,-8.44627 -8.8979,-8.44627 -4.77531,0 -8.6728,3.7563 -8.8996,8.47548 v 0 c 0,0.1597 0.31761,0.2891 0.68679,0.2891 0.36922,0 0.69949,-0.1294 0.69949,-0.2891 v 0 c 0.0606,-0.49611 0.15931,-0.98739 0.29601,-1.46949 l 0.2152,-0.65211 0.0335,-0.0798 c 1.08239,-2.8666 3.84588,-4.81239 6.9686,-4.81239 3.96758,0 7.21039,3.10258 7.4357,7.01379 h 0.002 c 0,0.1597 0.3277,0.2891 0.73191,0.2891 0.40418,0 0.73187,-0.1294 0.73187,-0.2891 0,-0.01 -0.001,-0.0196 -0.004,-0.0292"
         style="fill:#d2e288;fill-opacity:1;fill-rule:evenodd;stroke:none;stroke-width:0.35277778"
         id="path4765"
         inkscape:connector-curvature="0" />
      <path
         d="m 344.80137,247.92195 c -0.0164,1.8045 -0.0328,3.60899 -0.0492,5.41352 0.42107,2.76299 2.7252,2.94167 5.4381,2.55909 0.1753,-0.6972 0.0719,-1.5457 -0.2461,-2.2429 -0.29301,0.13868 -0.6272,0.18271 -1.05812,0.14761 -1.25448,-0.10203 -1.3758,-0.56452 -1.47637,-1.22661 v -4.5769 h 2.43607 v -2.067 h -2.41148 v -3.02659 l -0.41491,-0.11123 -3.596,4.78653 0.0492,0.36907 z"
         style="fill:#0095da;fill-opacity:1;fill-rule:evenodd;stroke:none;stroke-width:0.35277778"
         id="path4767"
         inkscape:connector-curvature="0" />
    </g>
  </g>
</svg>
