<?xml version="1.0" encoding="UTF-8" standalone="no"?>
<!-- Created with Inkscape (http://www.inkscape.org/) -->

<svg
   xmlns:dc="http://purl.org/dc/elements/1.1/"
   xmlns:cc="http://creativecommons.org/ns#"
   xmlns:rdf="http://www.w3.org/1999/02/22-rdf-syntax-ns#"
   xmlns:svg="http://www.w3.org/2000/svg"
   xmlns="http://www.w3.org/2000/svg"
   xmlns:sodipodi="http://sodipodi.sourceforge.net/DTD/sodipodi-0.dtd"
   xmlns:inkscape="http://www.inkscape.org/namespaces/inkscape"
   width="56.877201mm"
   height="9.96628mm"
   viewBox="0 0 56.877201 9.96628"
   version="1.1"
   id="svg14121"
   inkscape:version="0.92.4 (5da689c313, 2019-01-14)"
   sodipodi:docname="nameonly.svg">
  <defs
     id="defs14115" />
  <sodipodi:namedview
     id="base"
     pagecolor="#ffffff"
     bordercolor="#666666"
     borderopacity="1.0"
     inkscape:pageopacity="0.0"
     inkscape:pageshadow="2"
     inkscape:zoom="0.35"
     inkscape:cx="-526.80125"
     inkscape:cy="-95.451792"
     inkscape:document-units="mm"
     inkscape:current-layer="layer1"
     showgrid="false"
     fit-margin-top="0"
     fit-margin-left="0"
     fit-margin-right="0"
     fit-margin-bottom="0"
     inkscape:window-width="1920"
     inkscape:window-height="1017"
     inkscape:window-x="-8"
     inkscape:window-y="108"
     inkscape:window-maximized="1" />
  <metadata
     id="metadata14118">
    <rdf:RDF>
      <cc:Work
         rdf:about="">
        <dc:format>image/svg+xml</dc:format>
        <dc:type
           rdf:resource="http://purl.org/dc/dcmitype/StillImage" />
        <dc:title></dc:title>
      </cc:Work>
    </rdf:RDF>
  </metadata>
  <g
     inkscape:label="Layer 1"
     inkscape:groupmode="layer"
     id="layer1"
     transform="translate(-91.75783,-113.6121)">
    <g
       transform="translate(-268.69696,-133.05376)"
       id="g14064">
      <path
         d="m 362.70537,254.47385 v -6.2471 h -2.25058 v -0.55181 c 0,-0.22028 0.0772,-0.40869 0.23171,-0.56307 0.15437,-0.15441 0.34269,-0.2317 0.5631,-0.2317 h 5.25258 v 1.34658 h -2.2298 v 6.2471 z"
         style="fill:#0095da;fill-opacity:1;fill-rule:nonzero;stroke:none;stroke-width:0.35277778"
         id="path4769"
         inkscape:connector-curvature="0" />
      <path
         d="m 370.87158,252.66586 h 1.1036 c -0.16189,0.61959 -0.47079,1.0904 -0.92658,1.41249 -0.45571,0.33902 -1.03021,0.50849 -1.7213,0.50849 -0.84,0 -1.49352,-0.27308 -1.96441,-0.81738 -0.47078,-0.5292 -0.70619,-1.2863 -0.70619,-2.2732 0,-0.9417 0.22789,-1.67622 0.68357,-2.20539 0.47093,-0.5443 1.12632,-0.81742 1.96441,-0.81742 0.88322,0 1.5669,0.26561 2.05282,0.79481 0.47078,0.5443 0.70629,1.3014 0.70629,2.27319 0,0.0584 0,0.10929 0,0.15452 0,0.0433 0,0.0734 0,0.0885 0,0.0734 -0.008,0.12432 -0.0226,0.15441 h -3.81758 c 0.0151,0.45579 0.12428,0.79481 0.3315,1.01508 0.19018,0.23552 0.4765,0.35221 0.86067,0.35221 0.2486,0 0.46331,-0.0508 0.63842,-0.15441 0.0452,-0.0151 0.0848,-0.0396 0.12238,-0.0772 0.0358,-0.0358 0.0773,-0.0772 0.12062,-0.12062 0.015,-0.0452 0.0697,-0.10347 0.1657,-0.17699 0.0961,-0.0734 0.2317,-0.11109 0.40869,-0.11109 z m -2.64798,-1.72332 h 2.25058 c -0.0301,-0.3974 -0.1318,-0.69119 -0.3089,-0.88328 -0.19208,-0.20532 -0.4633,-0.30879 -0.81728,-0.30879 -0.32212,0 -0.58762,0.10347 -0.7929,0.30879 -0.20722,0.20718 -0.31641,0.50101 -0.3315,0.88328"
         style="fill:#0095da;fill-opacity:1;fill-rule:nonzero;stroke:none;stroke-width:0.35277778"
         id="path4771"
         inkscape:connector-curvature="0" />
      <path
         d="m 376.3898,252.66586 h 1.1036 c -0.16189,0.61959 -0.47082,1.0904 -0.92661,1.41249 -0.45568,0.33902 -1.03022,0.50849 -1.72131,0.50849 -0.84,0 -1.49348,-0.27308 -1.96441,-0.81738 -0.47078,-0.5292 -0.70619,-1.2863 -0.70619,-2.2732 0,-0.9417 0.2279,-1.67622 0.68362,-2.20539 0.47088,-0.5443 1.12627,-0.81742 1.9644,-0.81742 0.88318,0 1.5669,0.26561 2.05278,0.79481 0.2637,0.32399 0.45583,0.69871 0.57252,1.12631 h -1.54432 c -0.0735,-0.1488 -0.14689,-0.25812 -0.22038,-0.3315 -0.19212,-0.20722 -0.4633,-0.30893 -0.81731,-0.30893 -0.32209,0 -0.58759,0.10171 -0.7929,0.30893 -0.26561,0.29379 -0.39741,0.77967 -0.39741,1.45577 0,0.6761 0.1318,1.1545 0.39741,1.4351 0.19021,0.23552 0.47649,0.35221 0.8607,0.35221 0.24861,0 0.46331,-0.0508 0.63839,-0.15441 0.0452,-0.0151 0.0848,-0.0396 0.12241,-0.0772 0.0358,-0.0358 0.0773,-0.0772 0.12058,-0.12062 0.0301,-0.0452 0.0885,-0.10347 0.17703,-0.17699 0.0885,-0.0734 0.22038,-0.11109 0.3974,-0.11109"
         style="fill:#0095da;fill-opacity:1;fill-rule:nonzero;stroke:none;stroke-width:0.35277778"
         id="path4773"
         inkscape:connector-curvature="0" />
      <path
         d="m 381.42211,250.25897 c -0.22031,-0.3089 -0.52173,-0.46331 -0.90403,-0.46331 -0.4124,0 -0.72881,0.1469 -0.94919,0.44069 -0.22221,0.2938 -0.3315,0.69871 -0.3315,1.21472 v 3.02278 h -1.501 v -7.59368 h 0.74962 c 0.20708,0 0.38417,0.0735 0.53107,0.22038 0.14689,0.14689 0.22031,0.32392 0.22031,0.5311 v 1.74209 c 0.2656,-0.44069 0.6404,-0.71949 1.12631,-0.83809 0.48398,-0.11681 0.94728,-0.0885 1.38988,0.0885 0.41239,0.17699 0.75709,0.45579 1.03773,0.83809 0.27869,0.38421 0.41807,0.91341 0.41807,1.58962 v 3.42198 H 381.731 v -3.04539 c 0,-0.22031 -0.0188,-0.42369 -0.0546,-0.60639 -0.0377,-0.18461 -0.12242,-0.37292 -0.25428,-0.5631"
         style="fill:#0095da;fill-opacity:1;fill-rule:nonzero;stroke:none;stroke-width:0.35277778"
         id="path4775"
         inkscape:connector-curvature="0" />
      <path
         d="m 384.91009,250.67704 c 0,0.85312 0.1827,1.501 0.55181,1.94363 0.36728,0.45579 0.889,0.68358 1.56697,0.68358 0.661,0 1.18463,-0.22779 1.56694,-0.68358 0.38227,-0.47092 0.57259,-1.11873 0.57259,-1.94363 0,-0.8231 -0.19032,-1.47849 -0.57259,-1.96437 -0.38231,-0.45572 -0.90594,-0.68361 -1.56694,-0.68361 -0.67797,0 -1.19969,0.22789 -1.56697,0.68361 -0.36911,0.45769 -0.55181,1.11118 -0.55181,1.96437 z m -1.5669,0.006 c 0,-1.2373 0.32389,-2.21481 0.96989,-2.9361 0.69311,-0.72129 1.5971,-1.08108 2.71579,-1.08108 1.10363,0 2.00763,0.35979 2.71392,1.08108 0.66291,0.73639 0.99251,1.7138 0.99251,2.9361 0,1.2204 -0.3296,2.1922 -0.99251,2.91169 -0.6761,0.70622 -1.58199,1.06031 -2.71392,1.06031 -1.14889,0 -2.05288,-0.35409 -2.71579,-1.06031 -0.646,-0.70439 -0.96989,-1.67619 -0.96989,-2.91169"
         style="fill:#0095da;fill-opacity:1;fill-rule:nonzero;stroke:none;stroke-width:0.35277778"
         id="path4777"
         inkscape:connector-curvature="0" />
      <path
         d="m 392.59038,255.88256 c 0,0.20528 -0.0734,0.38241 -0.22028,0.52931 -0.14693,0.1469 -0.32402,0.22027 -0.5311,0.22027 h -0.74962 v -5.48989 c 0,-1.03018 0.30131,-1.7308 0.90399,-2.10559 0.60463,-0.37479 1.25811,-0.56321 1.96431,-0.56321 0.36921,0 0.74019,0.0697 1.11502,0.20909 0.37479,0.13942 0.67419,0.34283 0.89457,0.60643 0.44073,0.5745 0.661,1.30898 0.661,2.20539 0,0.9266 -0.22027,1.67619 -0.661,2.24878 -0.44259,0.55933 -1.00756,0.83993 -1.6988,0.83993 -0.36907,0 -0.69306,-0.0678 -0.97179,-0.1996 -0.2938,-0.1469 -0.52921,-0.37483 -0.7063,-0.68372 z m 2.51622,-4.3222 c 0,-0.5745 -0.11112,-1.01522 -0.3315,-1.32401 -0.22031,-0.30889 -0.53672,-0.4633 -0.94922,-0.4633 -0.39741,0 -0.70619,0.15441 -0.92661,0.4633 -0.20528,0.2787 -0.30889,0.72129 -0.30889,1.32401 0,0.5593 0.10932,0.97928 0.3315,1.25801 0.22042,0.30889 0.53679,0.4633 0.94922,0.4633 0.38227,0 0.68369,-0.15441 0.904,-0.4633 0.22038,-0.30882 0.3315,-0.72881 0.3315,-1.25801"
         style="fill:#0095da;fill-opacity:1;fill-rule:nonzero;stroke:none;stroke-width:0.35277778"
         id="path4779"
         inkscape:connector-curvature="0" />
      <path
         d="m 399.49858,254.47194 c -0.48588,0.0302 -1.01138,0.0226 -1.57829,-0.0207 -0.56692,-0.0452 -0.84939,-0.40492 -0.84939,-1.08292 v -6.48818 h 0.79478 c 0.19021,0 0.35972,0.0735 0.50662,0.22038 0.1469,0.14689 0.22038,0.32392 0.22038,0.5292 v 0.99441 h 0.9059 v 0.30889 c 0,0.22031 -0.0735,0.40111 -0.22038,0.54049 -0.1469,0.13942 -0.32392,0.20913 -0.53111,0.20913 h -0.15441 v 3.2676 c 0,0.24857 0.1469,0.37479 0.4426,0.37479 h 0.4633 z"
         style="fill:#0095da;fill-opacity:1;fill-rule:nonzero;stroke:none;stroke-width:0.35277778"
         id="path4781"
         inkscape:connector-curvature="0" />
      <path
         d="m 399.76217,248.60345 h 0.79481 c 0.20722,0 0.38231,0.0734 0.52921,0.22042 0.1488,0.14689 0.22232,0.32388 0.22232,0.5292 v 5.12078 h -1.54634 z m 0,-1.72328 h 0.79481 c 0.20722,0 0.38231,0.0735 0.52921,0.22038 0.1488,0.14689 0.22232,0.32392 0.22232,0.5292 v 0.46521 h -1.54634 z"
         style="fill:#0095da;fill-opacity:1;fill-rule:nonzero;stroke:none;stroke-width:0.35277778"
         id="path4783"
         inkscape:connector-curvature="0" />
      <path
         d="m 402.10328,253.94465 c -0.30889,-0.26561 -0.53111,-0.62149 -0.66298,-1.0716 -0.13179,-0.44831 -0.19773,-0.91539 -0.19773,-1.40131 0,-0.39729 0.0546,-0.7947 0.1657,-1.1921 0.10922,-0.39737 0.28251,-0.72697 0.51791,-0.99247 0.38231,-0.44073 0.87581,-0.70252 1.4785,-0.78352 0.60261,-0.081 1.14882,-0.0339 1.63279,0.14312 0.5594,0.22038 0.97183,0.60459 1.23741,1.14889 0.2486,0.48398 0.37482,1.05089 0.37482,1.6987 0,0.47089 -0.0528,0.8758 -0.15451,1.21288 -0.10362,0.33902 -0.23541,0.62721 -0.39741,0.86262 -0.35398,0.48401 -0.80229,0.78528 -1.34659,0.90399 -0.48591,0.1318 -0.9755,0.14312 -1.46709,0.0339 -0.4934,-0.11109 -0.88703,-0.29951 -1.18082,-0.5631 z m 1.0584,-3.88539 c -0.30889,0.33898 -0.4482,0.84381 -0.41807,1.51239 0.0282,0.66852 0.15437,1.13559 0.37479,1.4012 0.0885,0.1186 0.24288,0.21661 0.4633,0.2975 0.22027,0.081 0.4445,0.0886 0.67229,0.0226 0.22789,-0.0659 0.4313,-0.2316 0.6084,-0.4972 0.17508,-0.2636 0.27121,-0.6912 0.28621,-1.27879 0,-0.53111 -0.0847,-0.92851 -0.25421,-1.19211 -0.16951,-0.2656 -0.36351,-0.43511 -0.58389,-0.50849 -0.22221,-0.0735 -0.44252,-0.0772 -0.6629,-0.0113 -0.22031,0.0678 -0.38231,0.1525 -0.48592,0.25421"
         style="fill:#0095da;fill-opacity:1;fill-rule:nonzero;stroke:none;stroke-width:0.35277778"
         id="path4785"
         inkscape:connector-curvature="0" />
      <path
         d="m 412.01337,254.47385 h -0.77209 c -0.22228,0 -0.40118,-0.0697 -0.54239,-0.20909 -0.13939,-0.14122 -0.2091,-0.32011 -0.2091,-0.54049 v 0 -3.002 c 0,-0.35412 -0.10551,-0.6102 -0.32021,-0.7722 -0.2128,-0.16203 -0.45198,-0.24303 -0.71748,-0.24303 -0.2637,0 -0.49911,0.081 -0.7063,0.24303 -0.20531,0.162 -0.30893,0.41808 -0.30893,0.7722 v 3.75158 h -1.54428 v -3.44089 c 0,-1.00002 0.2618,-1.67051 0.78348,-2.00759 0.52173,-0.33902 1.09982,-0.52172 1.73271,-0.55192 0.6478,0 1.24301,0.16951 1.78731,0.5067 0.5442,0.33902 0.81728,1.02259 0.81728,2.05281 z"
         style="fill:#0095da;fill-opacity:1;fill-rule:nonzero;stroke:none;stroke-width:0.35277778"
         id="path4787"
         inkscape:connector-curvature="0" />
      <path
         d="m 412.1246,252.53396 h 1.501 c 0.0132,0.2939 0.12428,0.51611 0.3296,0.66301 0.22218,0.1469 0.51597,0.22027 0.88329,0.22027 0.2655,0 0.49339,-0.0508 0.68361,-0.15437 0.17709,-0.10361 0.2656,-0.24292 0.2656,-0.42002 0,-0.2637 -0.30892,-0.4633 -0.9266,-0.5951 -0.26561,-0.0452 -0.4633,-0.0885 -0.59701,-0.1337 -0.77981,-0.19029 -1.30139,-0.41808 -1.567,-0.68369 -0.29379,-0.2637 -0.44069,-0.61771 -0.44069,-1.0584 0,-0.5594 0.21279,-1.0227 0.64029,-1.38991 0.44069,-0.33909 1.01519,-0.5086 1.72142,-0.5086 0.76468,0 1.37488,0.16951 1.83246,0.5086 0.4257,0.36721 0.65352,0.84561 0.68372,1.4332 h -0.94922 c -0.2788,0 -0.4935,-0.12429 -0.64039,-0.37479 v 0 c -0.0584,-0.0584 -0.1167,-0.11681 -0.17699,-0.17699 -0.17519,-0.13191 -0.41811,-0.19781 -0.72701,-0.19781 -0.2957,0 -0.51601,0.0433 -0.6629,0.1318 -0.13191,0.0886 -0.1978,0.22038 -0.1978,0.39741 0,0.23537 0.38241,0.43508 1.14702,0.5952 0.0885,0.0301 0.1657,0.0527 0.2316,0.0678 0.066,0.0132 0.12809,0.0207 0.18838,0.0207 0.74962,0.19212 1.2712,0.4124 1.5669,0.6629 0.2788,0.26371 0.41811,0.61779 0.41811,1.05851 0,0.64781 -0.23541,1.14879 -0.70619,1.501 -0.44073,0.32389 -1.1037,0.48588 -1.98512,0.48588 -0.84,0 -1.46519,-0.16947 -1.87579,-0.50849 -0.42749,-0.33708 -0.64029,-0.83058 -0.64029,-1.47839 z"
         style="fill:#0095da;fill-opacity:1;fill-rule:nonzero;stroke:none;stroke-width:0.35277778"
         id="path4789"
         inkscape:connector-curvature="0" />
    </g>
  </g>
</svg>
