<?xml version="1.0" encoding="UTF-8" standalone="no"?>
<!-- Created with Inkscape (http://www.inkscape.org/) -->

<svg
   xmlns:dc="http://purl.org/dc/elements/1.1/"
   xmlns:cc="http://creativecommons.org/ns#"
   xmlns:rdf="http://www.w3.org/1999/02/22-rdf-syntax-ns#"
   xmlns:svg="http://www.w3.org/2000/svg"
   xmlns="http://www.w3.org/2000/svg"
   xmlns:sodipodi="http://sodipodi.sourceforge.net/DTD/sodipodi-0.dtd"
   xmlns:inkscape="http://www.inkscape.org/namespaces/inkscape"
   width="78.711601mm"
   height="19.049999mm"
   viewBox="0 0 78.711601 19.049999"
   version="1.1"
   id="svg5030"
   inkscape:version="0.92.4 (5da689c313, 2019-01-14)"
   sodipodi:docname="name+log.svg">
  <defs
     id="defs5024" />
  <sodipodi:namedview
     id="base"
     pagecolor="#ffffff"
     bordercolor="#666666"
     borderopacity="1.0"
     inkscape:pageopacity="0.0"
     inkscape:pageshadow="2"
     inkscape:zoom="0.47"
     inkscape:cx="-767.78062"
     inkscape:cy="407.42859"
     inkscape:document-units="mm"
     inkscape:current-layer="layer1"
     showgrid="false"
     fit-margin-top="0"
     fit-margin-left="0"
     fit-margin-right="0"
     fit-margin-bottom="0"
     inkscape:window-width="1920"
     inkscape:window-height="1017"
     inkscape:window-x="-8"
     inkscape:window-y="108"
     inkscape:window-maximized="1" />
  <metadata
     id="metadata5027">
    <rdf:RDF>
      <cc:Work
         rdf:about="">
        <dc:format>image/svg+xml</dc:format>
        <dc:type
           rdf:resource="http://purl.org/dc/dcmitype/StillImage" />
        <dc:title></dc:title>
      </cc:Work>
    </rdf:RDF>
  </metadata>
  <g
     inkscape:label="Layer 1"
     inkscape:groupmode="layer"
     id="layer1"
     transform="translate(-338.62039,-237.58214)">
    <g
       transform="matrix(0.35277777,0,0,-0.35277777,325.92039,515.53215)"
       id="g4761">
      <path
         d="m 62.4569,787.8898 c 14.612,0 26.4571,-11.8452 26.4571,-26.4569 0,-11.8177 -7.7487,-21.8245 -18.4419,-25.2199 0.0221,1.2598 -0.0725,2.6017 -0.2982,3.9816 -0.1502,0.9173 -0.3503,1.8 -0.5913,2.6376 7.4789,2.8667 12.7894,10.1129 12.7894,18.6007 0,10.9984 -8.9164,19.9148 -19.9151,19.9148 -9.26,0 -17.043,-6.3204 -19.2728,-14.8822 l -0.0317,0.038 c -0.6509,-2.2932 -0.999,-4.7135 -0.999,-7.2153 0,-10.4616 6.0909,-19.4993 14.9196,-23.7637 C 45.0431,738.0116 36,748.6659 36,761.4329 c 0,14.6117 11.8451,26.4569 26.4569,26.4569"
         style="fill:#a6ce38;fill-opacity:1;fill-rule:evenodd;stroke:none"
         id="path4763"
         inkscape:connector-curvature="0" />
      <path
         d="m 87.6793,762.7482 c -0.6846,13.3381 -11.7139,23.9422 -25.2224,23.9422 -13.5363,0 -24.5843,-10.6478 -25.2272,-24.025 v 0 c 0,-0.4527 0.9003,-0.8195 1.9468,-0.8195 1.0466,0 1.9828,0.3668 1.9828,0.8195 v 0 c 0.1718,1.4063 0.4516,2.7989 0.8391,4.1655 l 0.61,1.8485 0.095,0.2262 c 3.0682,8.1258 10.9017,13.6414 19.7535,13.6414 11.2467,0 20.4389,-8.7947 21.0776,-19.8816 h 0.0062 c 0,-0.4527 0.9289,-0.8195 2.0747,-0.8195 1.1457,0 2.0746,0.3668 2.0746,0.8195 0,0.028 -0.0036,0.0555 -0.0107,0.0828"
         style="fill:#d2e288;fill-opacity:1;fill-rule:evenodd;stroke:none"
         id="path4765"
         inkscape:connector-curvature="0" />
      <path
         d="m 53.5209,758.5801 c -0.0464,-5.1151 -0.0929,-10.2302 -0.1394,-15.3454 1.1936,-7.8321 7.725,-8.3386 15.4151,-7.2541 0.4969,1.9763 0.2038,4.3815 -0.6976,6.3578 -0.8306,-0.3931 -1.7779,-0.5179 -2.9994,-0.4184 -3.556,0.2892 -3.8999,1.6002 -4.185,3.477 v 12.9739 H 67.82 v 5.8592 h -6.8357 v 8.5793 l -1.1761,0.3153 -10.1934,-13.5681 0.1395,-1.0462 z"
         style="fill:#0095da;fill-opacity:1;fill-rule:evenodd;stroke:none"
         id="path4767"
         inkscape:connector-curvature="0" />
      <path
         d="m 104.2724,740.0078 v 17.7083 h -6.3796 v 1.5642 c 0,0.6244 0.2188,1.1585 0.6568,1.5961 0.4376,0.4377 0.9714,0.6568 1.5962,0.6568 h 14.8892 v -3.8171 h -6.3207 v -17.7083 z"
         style="fill:#0095da;fill-opacity:1;fill-rule:nonzero;stroke:none"
         id="path4769"
         inkscape:connector-curvature="0" />
      <path
         d="m 127.4207,745.1328 h 3.1283 c -0.4589,-1.7563 -1.3345,-3.0909 -2.6265,-4.0039 -1.2918,-0.961 -2.9203,-1.4414 -4.8793,-1.4414 -2.3811,0 -4.2336,0.7741 -5.5684,2.317 -1.3345,1.5001 -2.0018,3.6462 -2.0018,6.4437 0,2.6694 0.646,4.7515 1.9377,6.2515 1.3349,1.5429 3.1927,2.3171 5.5684,2.3171 2.5036,0 4.4416,-0.7529 5.819,-2.253 1.3345,-1.5429 2.0021,-3.689 2.0021,-6.4437 0,-0.1655 0,-0.3098 0,-0.438 0,-0.1227 0,-0.208 0,-0.2508 0,-0.2081 -0.0216,-0.3524 -0.0641,-0.4377 h -10.8215 c 0.0428,-1.292 0.3523,-2.253 0.9397,-2.8774 0.5391,-0.6676 1.3507,-0.9984 2.4397,-0.9984 0.7047,0 1.3133,0.144 1.8097,0.4377 0.1281,0.0428 0.2404,0.1122 0.3469,0.2188 0.1015,0.1015 0.2192,0.2188 0.3419,0.3419 0.0425,0.1281 0.1976,0.2933 0.4697,0.5017 0.2724,0.2081 0.6568,0.3149 1.1585,0.3149 z m -7.5061,4.885 h 6.3796 c -0.0853,1.1265 -0.3736,1.9593 -0.8756,2.5038 -0.5445,0.582 -1.3133,0.8753 -2.3167,0.8753 -0.9131,0 -1.6657,-0.2933 -2.2476,-0.8753 -0.5874,-0.5873 -0.8969,-1.4202 -0.9397,-2.5038"
         style="fill:#0095da;fill-opacity:1;fill-rule:nonzero;stroke:none"
         id="path4771"
         inkscape:connector-curvature="0" />
      <path
         d="m 143.0629,745.1328 h 3.1283 c -0.4589,-1.7563 -1.3346,-3.0909 -2.6266,-4.0039 -1.2917,-0.961 -2.9203,-1.4414 -4.8793,-1.4414 -2.3811,0 -4.2335,0.7741 -5.5684,2.317 -1.3345,1.5001 -2.0018,3.6462 -2.0018,6.4437 0,2.6694 0.646,4.7515 1.9378,6.2515 1.3348,1.5429 3.1926,2.3171 5.5684,2.3171 2.5035,0 4.4416,-0.7529 5.8189,-2.253 0.7475,-0.9184 1.2921,-1.9806 1.6229,-3.1927 h -4.3776 c -0.2083,0.4218 -0.4164,0.7317 -0.6247,0.9397 -0.5446,0.5874 -1.3133,0.8757 -2.3168,0.8757 -0.913,0 -1.6656,-0.2883 -2.2476,-0.8757 -0.7529,-0.8328 -1.1265,-2.2101 -1.1265,-4.1266 0,-1.9165 0.3736,-3.2726 1.1265,-4.068 0.5392,-0.6676 1.3507,-0.9984 2.4398,-0.9984 0.7047,0 1.3133,0.144 1.8096,0.4377 0.1282,0.0428 0.2404,0.1122 0.347,0.2188 0.1015,0.1015 0.2191,0.2188 0.3418,0.3419 0.0854,0.1281 0.2509,0.2933 0.5018,0.5017 0.2508,0.2081 0.6247,0.3149 1.1265,0.3149"
         style="fill:#0095da;fill-opacity:1;fill-rule:nonzero;stroke:none"
         id="path4773"
         inkscape:connector-curvature="0" />
      <path
         d="m 157.3277,751.9555 c -0.6245,0.8756 -1.4789,1.3133 -2.5626,1.3133 -1.169,0 -2.0659,-0.4164 -2.6906,-1.2492 -0.6299,-0.8328 -0.9397,-1.9806 -0.9397,-3.4433 v -8.5685 H 146.88 v 21.5254 h 2.1249 c 0.587,0 1.089,-0.2083 1.5054,-0.6247 0.4164,-0.4164 0.6245,-0.9182 0.6245,-1.5055 v -4.9382 c 0.7529,1.2492 1.8153,2.0395 3.1927,2.3757 1.3719,0.3311 2.6852,0.2508 3.9398,-0.2509 1.169,-0.5017 2.1461,-1.292 2.9416,-2.3757 0.79,-1.0891 1.1851,-2.5892 1.1851,-4.506 v -9.7001 h -4.1907 v 8.6326 c 0,0.6245 -0.0533,1.201 -0.1548,1.7189 -0.1069,0.5233 -0.347,1.0571 -0.7208,1.5962"
         style="fill:#0095da;fill-opacity:1;fill-rule:nonzero;stroke:none"
         id="path4775"
         inkscape:connector-curvature="0" />
      <path
         d="m 167.2149,750.7704 c 0,-2.4183 0.5179,-4.2548 1.5642,-5.5095 1.0411,-1.292 2.52,-1.9377 4.4418,-1.9377 1.8737,0 3.358,0.6457 4.4417,1.9377 1.0836,1.3349 1.6231,3.1712 1.6231,5.5095 0,2.3332 -0.5395,4.191 -1.6231,5.5683 -1.0837,1.2918 -2.568,1.9378 -4.4417,1.9378 -1.9218,0 -3.4007,-0.646 -4.4418,-1.9378 -1.0463,-1.2974 -1.5642,-3.1498 -1.5642,-5.5683 z m -4.4416,-0.0159 c 0,3.5073 0.9181,6.2782 2.7493,8.3228 1.9647,2.0446 4.5272,3.0645 7.6983,3.0645 3.1284,0 5.6909,-1.0199 7.693,-3.0645 1.8791,-2.0874 2.8134,-4.858 2.8134,-8.3228 0,-3.4594 -0.9343,-6.2141 -2.8134,-8.2536 -1.9165,-2.0019 -4.4844,-3.0056 -7.693,-3.0056 -3.2567,0 -5.8192,1.0037 -7.6983,3.0056 -1.8312,1.9967 -2.7493,4.7514 -2.7493,8.2536"
         style="fill:#0095da;fill-opacity:1;fill-rule:nonzero;stroke:none"
         id="path4777"
         inkscape:connector-curvature="0" />
      <path
         d="m 188.9858,736.0146 c 0,-0.5819 -0.208,-1.084 -0.6244,-1.5004 -0.4165,-0.4164 -0.9185,-0.6244 -1.5055,-0.6244 h -2.1249 v 15.5619 c 0,2.9202 0.8541,4.9062 2.5625,5.9686 1.7139,1.0624 3.5663,1.5965 5.5681,1.5965 1.0466,0 2.0982,-0.1976 3.1607,-0.5927 1.0624,-0.3952 1.9111,-0.9718 2.5358,-1.719 1.2493,-1.6285 1.8737,-3.7105 1.8737,-6.2515 0,-2.6266 -0.6244,-4.7514 -1.8737,-6.3745 -1.2546,-1.5855 -2.8561,-2.3809 -4.8155,-2.3809 -1.0462,0 -1.9646,0.1922 -2.7547,0.5658 -0.8328,0.4164 -1.5001,1.0625 -2.0021,1.9381 z m 7.1326,12.2519 c 0,1.6285 -0.315,2.8778 -0.9397,3.7531 -0.6245,0.8756 -1.5214,1.3133 -2.6907,1.3133 -1.1265,0 -2.0018,-0.4377 -2.6266,-1.3133 -0.5819,-0.79 -0.8756,-2.0446 -0.8756,-3.7531 0,-1.5854 0.3099,-2.7759 0.9397,-3.566 0.6248,-0.8756 1.5216,-1.3133 2.6907,-1.3133 1.0836,0 1.938,0.4377 2.5625,1.3133 0.6247,0.8754 0.9397,2.0659 0.9397,3.566"
         style="fill:#0095da;fill-opacity:1;fill-rule:nonzero;stroke:none"
         id="path4779"
         inkscape:connector-curvature="0" />
      <path
         d="m 208.5681,740.0132 c -1.3773,-0.0856 -2.8669,-0.0641 -4.4739,0.0586 -1.607,0.1282 -2.4077,1.1478 -2.4077,3.0697 v 18.3917 h 2.2529 c 0.5392,0 1.0197,-0.2083 1.4361,-0.6247 0.4164,-0.4164 0.6247,-0.9182 0.6247,-1.5001 v -2.8188 h 2.5679 v -0.8756 c 0,-0.6245 -0.2083,-1.137 -0.6247,-1.5321 -0.4164,-0.3952 -0.9182,-0.5928 -1.5055,-0.5928 h -0.4377 v -9.2625 c 0,-0.7046 0.4164,-1.0624 1.2546,-1.0624 h 1.3133 z"
         style="fill:#0095da;fill-opacity:1;fill-rule:nonzero;stroke:none"
         id="path4781"
         inkscape:connector-curvature="0" />
      <path
         d="m 209.3153,756.6483 h 2.253 c 0.5874,0 1.0837,-0.2081 1.5001,-0.6248 0.4218,-0.4164 0.6302,-0.9181 0.6302,-1.5001 v -14.5156 h -4.3833 z m 0,4.8849 h 2.253 c 0.5874,0 1.0837,-0.2083 1.5001,-0.6247 0.4218,-0.4164 0.6302,-0.9182 0.6302,-1.5001 v -1.3187 h -4.3833 z"
         style="fill:#0095da;fill-opacity:1;fill-rule:nonzero;stroke:none"
         id="path4783"
         inkscape:connector-curvature="0" />
      <path
         d="m 215.9515,741.5079 c -0.8756,0.7529 -1.5055,1.7617 -1.8793,3.0376 -0.3736,1.2708 -0.5605,2.5948 -0.5605,3.9722 0,1.1262 0.1548,2.2527 0.4697,3.3792 0.3096,1.1264 0.8008,2.0607 1.4681,2.8133 1.0837,1.2493 2.4826,1.9914 4.191,2.221 1.7082,0.2296 3.2565,0.0961 4.6284,-0.4057 1.5857,-0.6247 2.7548,-1.7138 3.5076,-3.2567 0.7047,-1.3719 1.0625,-2.9789 1.0625,-4.8152 0,-1.3348 -0.1497,-2.4826 -0.438,-3.4381 -0.2937,-0.961 -0.6673,-1.7779 -1.1265,-2.4452 -1.0034,-1.372 -2.2742,-2.226 -3.8171,-2.5625 -1.3774,-0.3736 -2.7652,-0.4057 -4.1587,-0.0961 -1.3986,0.3149 -2.5144,0.849 -3.3472,1.5962 z m 3.0002,11.0137 c -0.8756,-0.9609 -1.2705,-2.3919 -1.1851,-4.2871 0.0799,-1.895 0.4376,-3.219 1.0624,-3.9719 0.2508,-0.3362 0.6885,-0.614 1.3133,-0.8433 0.6244,-0.2296 1.26,-0.2512 1.9057,-0.0641 0.646,0.1868 1.2226,0.6565 1.7246,1.4094 0.4963,0.7472 0.7688,1.9593 0.8113,3.6249 0,1.5055 -0.2401,2.632 -0.7206,3.3792 -0.4805,0.7529 -1.0304,1.2334 -1.6551,1.4414 -0.6299,0.2084 -1.2544,0.2189 -1.8791,0.0321 -0.6245,-0.1922 -1.0837,-0.4323 -1.3774,-0.7206"
         style="fill:#0095da;fill-opacity:1;fill-rule:nonzero;stroke:none"
         id="path4785"
         inkscape:connector-curvature="0" />
      <path
         d="m 244.0431,740.0078 h -2.1886 c -0.6301,0 -1.1372,0.1976 -1.5375,0.5927 -0.3951,0.4003 -0.5927,0.9074 -0.5927,1.5321 v 0 8.5096 c 0,1.0038 -0.2991,1.7297 -0.9077,2.1889 -0.6032,0.4593 -1.2812,0.6889 -2.0338,0.6889 -0.7475,0 -1.4148,-0.2296 -2.0021,-0.6889 -0.582,-0.4592 -0.8757,-1.1851 -0.8757,-2.1889 v -10.6344 h -4.3775 v 9.7537 c 0,2.8347 0.7421,4.7353 2.2209,5.6908 1.4789,0.961 3.1176,1.4789 4.9116,1.5645 1.8363,0 3.5235,-0.4805 5.0664,-1.4363 1.5426,-0.961 2.3167,-2.8987 2.3167,-5.819 z"
         style="fill:#0095da;fill-opacity:1;fill-rule:nonzero;stroke:none"
         id="path4787"
         inkscape:connector-curvature="0" />
      <path
         d="m 244.3584,745.5067 h 4.2548 c 0.0374,-0.8331 0.3523,-1.463 0.9343,-1.8794 0.6298,-0.4164 1.4626,-0.6244 2.5038,-0.6244 0.7526,0 1.3986,0.144 1.9378,0.4376 0.502,0.2937 0.7529,0.6886 0.7529,1.1906 0,0.7475 -0.8757,1.3133 -2.6266,1.6869 -0.7529,0.1281 -1.3133,0.2509 -1.6923,0.379 -2.2105,0.5394 -3.689,1.1851 -4.4419,1.938 -0.8328,0.7475 -1.2492,1.751 -1.2492,3.0002 0,1.5857 0.6032,2.899 1.815,3.9399 1.2492,0.9612 2.8777,1.4417 4.8796,1.4417 2.1676,0 3.8973,-0.4805 5.1944,-1.4417 1.2067,-1.0409 1.8525,-2.397 1.9381,-4.0626 h -2.6907 c -0.7903,0 -1.3989,0.3523 -1.8153,1.0624 v 0 c -0.1655,0.1655 -0.3308,0.3311 -0.5017,0.5017 -0.4966,0.3739 -1.1852,0.5607 -2.0608,0.5607 -0.8382,0 -1.4627,-0.1227 -1.8791,-0.3736 -0.3739,-0.2511 -0.5607,-0.6247 -0.5607,-1.1265 0,-0.6672 1.084,-1.2333 3.2514,-1.6872 0.2508,-0.0853 0.4697,-0.1493 0.6565,-0.1921 0.1871,-0.0375 0.3631,-0.0587 0.534,-0.0587 2.1249,-0.5446 3.6034,-1.169 4.4416,-1.8791 0.7903,-0.7475 1.1852,-1.7512 1.1852,-3.0005 0,-1.8363 -0.6673,-3.2564 -2.0018,-4.2548 -1.2493,-0.9181 -3.1286,-1.3773 -5.6271,-1.3773 -2.3811,0 -4.1533,0.4804 -5.3172,1.4414 -1.2118,0.9555 -1.815,2.3544 -1.815,4.1907 z"
         style="fill:#0095da;fill-opacity:1;fill-rule:nonzero;stroke:none"
         id="path4789"
         inkscape:connector-curvature="0" />
    </g>
  </g>
</svg>
